<svg xmlns="http://www.w3.org/2000/svg" width="100" height="100" viewBox="0 0 24 24" fill="none" stroke="#000000" stroke-width="2" stroke-linecap="round" stroke-linejoin="round">
  <path d="M22 6h-5.17c-.53 0-1.04.21-1.42.59L14 8H9c-1.1 0-2 .9-2 2v2.17c0 .53.21 1.04.59 1.42l.41.41c.41.41.41 1.07 0 1.48l-.41.41c-.38.38-.59.89-.59 1.42V19c0 .55.45 1 1 1h3c1.1 0 2-.9 2-2v-3.17c0-.53-.21-1.04-.59-1.42L12 13l.93-.93c.15-.15.35-.22.56-.22H17c.55 0 1-.45 1-1s-.45-1-1-1h-3.51c-.13 0-.26.05-.35.15l-.9.9c-.2.2-.2.51 0 .71s.51.2.71 0l.55-.55H17c1.1 0 2 .9 2 2s-.9 2-2 2h-3.51c-.53 0-1.04.21-1.42.59L12 16l1 1h-2v2c0 .55-.45 1-1 1H7c-1.1 0-2-.9-2-2v-2.17c0-.53.21-1.04.59-1.42l.41-.41c1-.99 1-2.59 0-3.58l-.41-.41A1.984 1.984 0 0 1 5 9.83V8c0-1.66 1.34-3 3-3h4c.55 0 1-.45 1-1s-.45-1-1-1H8.82L10 2.8c.2-.2.2-.51 0-.71-.09-.09-.22-.14-.35-.14h-1.3c-.27 0-.52.11-.71.29L5.83 4H3c-.55 0-1 .45-1 1s.45 1 1 1h2c.55 0 1-.45 1-1h.92L6 5.83Z"/>
</svg> 